<svg fill="#fd3826" xmlns="http://www.w3.org/2000/svg" viewBox="0 0 70 70">
    <path d="M45 14.68c-.83 0-1.5-.67-1.5-1.5V9.69c0-.38-.36-.69-.8-.69H27.5c-.44 0-.8.31-.8.69v3.49c0 .83-.67 1.5-1.5 1.5s-1.5-.67-1.5-1.5V9.69C23.7 7.66 25.41 6 27.5 
    6h15.2c2.09 0 3.8 1.66 3.8 3.69v3.49c0 .82-.67 1.5-1.5 1.5zM47.5 63H24.37c-4.34 0-7.87-3.68-7.87-8.2l-2-35.21c-.05-.83.58-1.54 1.41-1.58.84-.06 1.54.58 1.58 
    1.41l2 35.3c0 2.95 2.19 5.29 4.87 5.29H47.5c2.68 0 4.87-2.33 4.87-5.2l2.13-35.39c.05-.83.73-1.46 1.58-1.41.83.05 1.46.76 1.41 1.58l-2.13 35.3c.01 4.43-3.52 
    8.11-7.86 8.11z"></path>
    <path d="M58.5 15h-46c-.83 0-1.5-.67-1.5-1.5s.67-1.5 1.5-1.5h46c.83 0 1.5.67 1.5 1.5s-.67 1.5-1.5 1.5zM36 52c-.83 0-1.5-.67-1.5-1.5v-27c0-.83.67-1.5 1.5-1.5s1.5.67 
    1.5 1.5v27c0 .83-.67 1.5-1.5 1.5zM27 52c-.83 0-1.5-.67-1.5-1.5v-27c0-.83.67-1.5 1.5-1.5s1.5.67 1.5 1.5v27c0 .83-.67 1.5-1.5 1.5zM45 52c-.83 
    0-1.5-.67-1.5-1.5v-27c0-.83.67-1.5 1.5-1.5s1.5.67 1.5 1.5v27c0 .83-.67 1.5-1.5 1.5z"></path>
</svg>
